<?xml version="1.0" standalone="no"?>
<!DOCTYPE svg PUBLIC "-//W3C//DTD SVG 20010904//EN"
 "http://www.w3.org/TR/2001/REC-SVG-20010904/DTD/svg10.dtd">
<svg version="1.0" xmlns="http://www.w3.org/2000/svg"
 width="2000.000000pt" height="1500.000000pt" viewBox="0 0 2000.000000 1500.000000"
 preserveAspectRatio="xMidYMid meet">

<g transform="translate(0.000000,1500.000000) scale(0.100000,-0.100000)"
fill="#000000" stroke="none">
<path d="M0 7500 l0 -7500 10000 0 10000 0 0 7500 0 7500 -10000 0 -10000 0 0
-7500z m9960 3752 l0 -129 -257 -148 c-142 -82 -265 -153 -274 -159 -13 -7
-43 6 -129 54 -77 43 -108 66 -99 71 47 28 754 438 757 438 1 1 2 -57 2 -127z
m455 -87 c198 -115 368 -213 378 -220 15 -11 4 -20 -89 -74 -65 -37 -114 -59
-123 -56 -9 4 -134 75 -278 158 l-263 152 0 128 c0 70 3 126 8 124 4 -2 169
-98 367 -212z m-135 -271 l270 -157 0 -318 0 -317 -270 -156 c-148 -86 -274
-156 -280 -156 -5 0 -131 70 -280 156 l-270 156 0 317 0 318 268 156 c147 85
273 156 279 156 7 1 134 -69 283 -155z m-997 -106 l87 -49 0 -319 0 -318 -105
-61 c-57 -34 -107 -61 -110 -61 -3 0 -5 198 -5 440 l0 441 23 -12 c12 -7 61
-34 110 -61z m1563 -805 c-3 -3 -52 23 -110 57 l-106 62 0 318 0 318 108 61
107 60 3 -436 c1 -240 0 -438 -2 -440z m-1148 -116 l262 -152 0 -128 c0 -70
-3 -126 -7 -124 -5 2 -178 102 -386 222 l-379 218 109 63 c60 36 115 61 123
58 8 -3 133 -74 278 -157z m1003 101 c60 -34 106 -65 101 -69 -5 -5 -381 -222
-754 -436 -5 -2 -8 54 -8 124 l0 129 268 156 c147 86 271 156 276 157 5 1 57
-27 117 -61z"/>
</g>
</svg>
